<?xml version="1.0" standalone="no"?>
<!DOCTYPE svg PUBLIC "-//W3C//DTD SVG 20010904//EN"
 "http://www.w3.org/TR/2001/REC-SVG-20010904/DTD/svg10.dtd">
<svg version="1.0" xmlns="http://www.w3.org/2000/svg"
 width="1500.000000pt" height="1500.000000pt" viewBox="0 0 1500.000000 1500.000000"
 preserveAspectRatio="xMidYMid meet">

<g transform="translate(0.000000,1500.000000) scale(0.100000,-0.100000)"
fill="#000000" stroke="none">
<path d="M7165 8170 c3 -5 8 -10 11 -10 2 0 4 5 4 10 0 6 -5 10 -11 10 -5 0
-7 -4 -4 -10z"/>
<path d="M12005 7275 c-130 -28 -219 -79 -310 -176 -140 -150 -190 -369 -125
-543 69 -182 255 -233 424 -117 46 32 116 127 137 186 7 19 18 35 24 35 6 0
18 -23 28 -50 22 -63 75 -117 122 -126 87 -16 169 53 163 137 -3 46 -13 55
-72 64 -79 13 -131 116 -143 282 -6 80 -5 81 18 85 61 8 64 125 5 184 -51 51
-151 66 -271 39z m98 -224 c18 -18 2 -230 -21 -291 -44 -114 -120 -170 -229
-170 -107 0 -162 58 -171 181 -10 148 70 249 228 286 58 13 177 10 193 -6z"/>
<path d="M11007 7086 c-91 -33 -166 -116 -218 -240 -12 -31 -28 -56 -35 -56
-12 0 -34 57 -34 86 0 5 -13 31 -29 57 -71 111 -213 116 -316 10 -46 -47 -108
-171 -125 -251 -20 -90 -36 -79 -43 31 -8 116 -21 163 -58 200 -27 26 -35 29
-79 25 -62 -6 -113 -44 -143 -104 -26 -54 -18 -73 39 -92 101 -34 126 -112
130 -411 2 -164 6 -216 16 -222 18 -12 67 -1 97 20 54 38 64 64 72 183 15 219
91 418 179 463 41 21 93 19 114 -4 10 -11 24 -40 32 -67 20 -66 35 -290 27
-405 -6 -93 -5 -97 16 -109 48 -25 130 21 151 86 15 43 14 124 0 204 -13 70
-2 122 45 225 51 110 118 165 200 165 86 0 98 -31 89 -240 -8 -186 1 -239 52
-298 44 -51 88 -67 144 -52 51 14 86 49 102 102 15 50 5 67 -47 85 -99 34
-124 105 -104 293 13 128 3 187 -42 250 -52 72 -142 98 -232 66z"/>
<path d="M9711 6908 c-57 -10 -108 -50 -146 -116 -16 -28 -35 -51 -42 -52 -6
0 -17 17 -24 38 -17 53 -36 78 -69 92 -60 25 -151 -20 -191 -94 -12 -24 -19
-50 -16 -59 4 -10 31 -28 60 -41 45 -20 57 -30 70 -64 37 -92 48 -289 26 -466
-13 -103 -9 -109 59 -103 47 5 84 32 109 82 13 25 14 48 7 140 -15 190 -10
292 16 353 12 29 34 62 48 72 29 24 90 26 118 5 28 -21 47 -18 76 13 52 53 62
124 26 167 -29 32 -71 43 -127 33z"/>
<path d="M8662 6820 c-97 -26 -163 -63 -239 -133 -104 -98 -100 -84 -108 -378
l-8 -257 42 -30 c138 -100 352 -31 456 146 25 42 43 41 51 -5 10 -55 39 -108
72 -132 89 -63 204 -12 219 97 5 38 3 42 -23 53 -90 35 -95 39 -117 87 -18 40
-21 66 -22 171 l0 125 32 8 c36 9 53 46 53 114 0 55 -32 94 -102 124 -75 33
-208 37 -306 10z m151 -201 l38 -10 -6 -62 c-25 -243 -122 -367 -287 -367 -76
0 -119 23 -149 80 -24 44 -26 164 -3 218 30 73 109 133 197 152 48 10 155 5
210 -11z"/>
<path d="M4860 6420 c0 -5 5 -10 10 -10 6 0 10 5 10 10 0 6 -4 10 -10 10 -5 0
-10 -4 -10 -10z"/>
<path d="M7370 6410 c0 -11 4 -20 9 -20 5 0 11 9 14 20 3 13 0 20 -9 20 -8 0
-14 -9 -14 -20z"/>
</g>
</svg>
